<svg width="188" height="22" viewBox="0 0 188 22" fill="none" xmlns="http://www.w3.org/2000/svg">
  <path
    d="M17.1033 13.5088H4.53522V10.4982H20.7414C20.3162 9.22103 18.946 8.03505 16.5363 8.03505H4.77146C2.0783 8.03505 0.519107 8.99296 0.519107 11.0912V13.3264C0.519107 15.1509 2.12555 16.2001 4.48797 16.2001H17.1978V19.3931H0.0938721C0.519107 21.1265 1.88931 22.0388 4.34622 22.0388H17.1505C19.8437 22.0388 21.1666 21.0353 21.1666 18.8914V16.6562C21.1666 14.6948 19.6074 13.6457 17.1033 13.5088ZM42.7591 8.08066H27.2617V22.0844H31.6558V16.7019H43.0899C46.2555 16.7019 48.0037 15.6527 48.0037 13.1895V11.6386C47.9564 9.35788 45.972 8.08066 42.7591 8.08066ZM44.1766 12.5509C44.1766 13.5544 43.9876 14.1018 42.2866 14.1018H31.6558L31.703 10.4526H42.0977C43.9876 10.4526 44.2238 11 44.2238 11.9579V12.5509H44.1766ZM62.6034 16.6106H53.2483L50.9331 18.9826H64.4461L66.7613 22.0844H71.9586L60.7607 7.48767L58.1148 10.6351L62.6034 16.6106ZM80.3688 10.4982H96.8112C96.386 8.85611 94.7323 8.03505 92.3699 8.03505H80.0853C77.9591 8.03505 75.9275 8.85611 75.9275 11.0912V18.937C75.9275 21.1721 77.9591 21.9932 80.0853 21.9932H92.5116C95.3465 21.9932 96.3388 21.2177 96.8112 19.3475H80.3688V10.4982ZM116.089 15.151V12.779H102.812V22.0844H122.42V19.4387H107.253V15.151H116.089ZM103.284 8.08066H123.081V10.5439H103.284V8.08066ZM135.271 8.08066H128.373L136.5 13.8281C137.681 13.0527 139.051 12.2316 140.28 11.5474L135.271 8.08066ZM145.288 15.2422C144.107 16.0176 142.926 16.8843 141.792 17.7054L147.934 22.0388H154.879L145.288 15.2422Z"
    fill="currentColor"
  />
  <path
    d="M187.906 -0.0843506C150.107 2.01393 132.625 17.6142 128.704 21.309L127.901 22.0388H134.893C153.793 3.74729 180.961 0.508641 187.906 -0.0843506Z"
    fill="currentColor"
  />
</svg>
